<?xml version="1.0" encoding="UTF-8"?>
<svg version="1.1" viewBox="0 0 1104 1600" width="1280" height="1280" xmlns="http://www.w3.org/2000/svg">
<path transform="translate(380 107)" d="m0 0c1.09 0.102 2.17 0.204 3.29 0.309 0.831 0.0838 1.66 0.168 2.52 0.254v3c3.96 0.495 3.96 0.495 8 1v3h8v4h7v3c1.07-0.0206 2.14-0.0413 3.25-0.0625 2.9 0.0483 5.04 0.194 7.75 1.06v3h8v4h7v3c2.31 0.33 4.62 0.66 7 1v3h10c0.33 1.32 0.66 2.64 1 4h7v3c3.63 0.33 7.26 0.66 11 1v3c2.31 0.33 4.62 0.66 7 1v3h8v4h7v3h7c0.33 1.32 0.66 2.64 1 4h7v3c3.63 0.33 7.26 0.66 11 1v4h7v3h8v4h8v3c3.3 0.33 6.6 0.66 10 1v3c3.96 0.495 3.96 0.495 8 1v3h8v3c2.31 0.33 4.62 0.66 7 1v3l3.25-0.0625c2.9 0.0483 5.04 0.194 7.75 1.06v3h7c0.33 0.99 0.66 1.98 1 3 2.97 0.33 5.94 0.66 9 1 0.33 0.99 0.66 1.98 1 3 1.98 0.33 3.96 0.66 6 1v3h8v4h8v3c2.31 0.33 4.62 0.66 7 1v3l3.25-0.0625c2.9 0.0483 5.04 0.194 7.75 1.06v3h7v4h8v3c2.31 0.33 4.62 0.66 7 1v3c1.99-0.0326 3.97-0.0651 5.96-0.0977 2.04 0.0977 2.04 0.0977 5.04 1.1v3h8v3c2.31 0.33 4.62 0.66 7 1v3c1.99-0.0326 3.97-0.0651 5.96-0.0977 2.04 0.0977 2.04 0.0977 5.04 1.1v3h45v3c5.94 0.33 11.9 0.66 18 1v3c0.675-0.0116 1.35-0.0232 2.05-0.0352 0.892-0.00902 1.78-0.018 2.7-0.0273 0.882-0.0116 1.76-0.0232 2.67-0.0352 2.36 0.0894 4.32 0.429 6.58 1.1v3h15v3c4.95 0.33 9.9 0.66 15 1v3c3.63 0.33 7.26 0.66 11 1v3c1.26-0.0619 2.52-0.124 3.81-0.188 3.97-0.0139 3.97-0.0139 5.75 1.62 0.474 0.516 0.949 1.03 1.44 1.56 3.61 0.73 3.61 0.73 7 1 0.33 0.99 0.66 1.98 1 3 2.31 0.33 4.62 0.66 7 1v3h7v4h7c0.33 0.99 0.66 1.98 1 3 2.31 0.33 4.62 0.66 7 1v3c2.31 0.33 4.62 0.66 7 1v3h4v4h7c0.33 0.99 0.66 1.98 1 3 0.99 0.33 1.98 0.66 3 1v3c2.31 0.33 4.62 0.66 7 1v3h4v4h4v3c1.98 0.33 3.96 0.66 6 1v3h4v4h4v3c1.32 0.33 2.64 0.66 4 1v3h3c0.33 0.99 0.66 1.98 1 3 0.99 0.33 1.98 0.66 3 1v3c1.32 0.33 2.64 0.66 4 1v3h3c0.33 0.99 0.66 1.98 1 3 0.99 0.33 1.98 0.66 3 1 0.33 0.99 0.66 1.98 1 3 0.99 0.33 1.98 0.66 3 1v3h3v4h4v4h4v7h4v4h3l1 3c0.99 0.33 1.98 0.66 3 1v6l4 1v4h3l1 3c0.99 0.33 1.98 0.66 3 1v7h4v7h3l1 7h3c0.186 0.959 0.186 0.959 0.375 1.94l0.625 2.06 2 1c0.407 2.32 0.744 4.66 1 7h3v7h4l1 11h3v8h3c1.16 3.47 1.07 6.36 1 10h3l1 12h3v14l4 1v14h3c0.962 6.37 1.11 12.6 1 19h3c1.09 31.1 1.05 61.9 0 93h-3l-1 14h-3v11c-0.99 0.33-1.98 0.66-3 1l-1 18h-3l-1 14h-3l-1 8h-3v11h-4v4h-3l-1 11h-3l-1 7h-3v5h-3l-1 7h-3l-1 7h-3v4h-3l-1 7h-3v4h-4v7h-4v4h-3l-1 7h-3v4h-4v4h-4v4h-3v3h-4v4h-3l-1 7h-4v4h-6l-1 4h-3l-1 7h-7v4h-4v3h-6v4h-4v4h-3v4h3v3h4v4h4v4h6v4h3v3h4v4h4v4h4v3h3v4h4v4h4v4h4v3h3v4h4v4h3l1 7h4v4h3v3h4v7l4 1v4h3l1 7h3v4h3l1 7h3v7h4v8h4v7h3l1 7h3v8h4v8h3c1.18 3.67 1.07 7.17 1 11h3l1 14h3v12h3c1.05 3.15 1.1 5.39 1.06 8.69-0.00902 0.994-0.018 1.99-0.0273 3.01-0.0174 1.14-0.0174 1.14-0.0352 2.3h3l1 19h3c0.146 4.94 0.288 9.88 0.427 14.8 0.0476 1.67 0.0961 3.34 0.146 5.01 0.54 18.3 0.468 36.5-0.0728 54.8-0.0484 1.7-0.0966 3.4-0.145 5.1-0.116 4.09-0.235 8.18-0.355 12.3h-3l-1 15h-3v15h-4v15h-3l-1 14h-3l-1 8h-3v8h-4v10c-0.99 0.33-1.98 0.66-3 1l-1 7h-3v7h-4v7c-0.99 0.33-1.98 0.66-3 1-0.733 2.02-0.733 2.02-1 4h-3v6l-4 1v4h-3l-1 7h-3l-1 4h-3v7h-4v4h-3l-1 4h-3v7h-4v4h-4v3h-3v4h-4v4h-3l-1 4h-3l-1 4h-3v3h-3l-1 4h-3v3h-4v4h-4v3h-3v4h-4v4h-7v4h-4v3c-2.31 0.33-4.62 0.66-7 1v3h-4v3c-2.31 0.33-4.62 0.66-7 1v3c-0.99 0.33-1.98 0.66-3 1-0.33 0.99-0.66 1.98-1 3h-7v4h-7v3c-2.31 0.33-4.62 0.66-7 1v3h-5v4h-11v3c-2.31 0.33-4.62 0.66-7 1v3l-11 1v3h-11c-0.33 1.32-0.66 2.64-1 4h-14v3c-4.95 0.33-9.9 0.66-15 1v3l-14 1c-0.33 0.99-0.66 1.98-1 3h-17v3c-11 1.27-22 1.1-33 1v3c-6.27 0.33-12.5 0.66-19 1v3h-8v3c-2.75 0.917-4.36 1.11-7.19 1.06-1.26-0.0206-2.52-0.0412-3.81-0.0625v3c-3.3 0.33-6.6 0.66-10 1v3h-8v4h-8v3h-7v4h-11v4h-11v3c-2.31 0.33-4.62 0.66-7 1v3h-8v4h-10c-0.33 1.32-0.66 2.64-1 4h-6v3c-2.64 0.33-5.28 0.66-8 1v3h-7c-0.33 1.32-0.66 2.64-1 4h-10v3c-2.64 0.33-5.28 0.66-8 1v3h-7v4h-8v3c-3.67 1.18-7.17 1.07-11 1v3h-7v4l-11 1v3h-7v3c-2.64 0.33-5.28 0.66-8 1v3c-3.63 0.33-7.26 0.66-11 1v3h-7v3c-2.64 0.33-5.28 0.66-8 1v3c-3.63 0.33-7.26 0.66-11 1v3c-2.31 0.33-4.62 0.66-7 1-0.33 0.99-0.66 1.98-1 3h-7v3c-2.31 0.33-4.62 0.66-7 1-0.33 0.99-0.66 1.98-1 3-2.97 0.33-5.94 0.66-9 1-0.33 0.99-0.66 1.98-1 3h-7v3c-3.63 0.33-7.26 0.66-11 1v3h-7v4h-11v3c-3.67 1.18-7.17 1.07-11 1v3h-5c-0.168-38.5-0.332-77-0.491-115-0.00902-2.18-0.018-4.37-0.0271-6.55-0.588-142-0.588-142-0.544-208 8.56e-4 -1.29 0.00171-2.58 0.00259-3.91 0.0104-14.5 0.0284-28.9 0.0599-43.4h-2c-0.988-6.54-1.12-12.9-1.06-19.5 0.00451-1.01 0.00902-2.03 0.0137-3.07 0.0117-2.48 0.0281-4.95 0.0488-7.43h4v-3h4v3h8v3c3.63 0.33 7.26 0.66 11 1v4h8v3c1.09-0.0206 2.19-0.0412 3.31-0.0625 3.69 0.0625 3.69 0.0625 6.69 1.06v3h8v4h7v3c3.3 0.33 6.6 0.66 10 1v3h4v3c3.63 0.33 7.26 0.66 11 1v3c2.31 0.33 4.62 0.66 7 1v3h8v4h8v3c3.3 0.33 6.6 0.66 10 1v3c2.64 0.33 5.28 0.66 8 1v3h7v4h8v3c2.31 0.33 4.62 0.66 7 1v3h8v3c3.3 0.33 6.6 0.66 10 1 0.33 0.99 0.66 1.98 1 3 2.31 0.33 4.62 0.66 7 1v3h7c0.33 1.32 0.66 2.64 1 4h7v3l11 1v3c2.31 0.33 4.62 0.66 7 1v3h8v3c2.31 0.33 4.62 0.66 7 1v3c3.3 0.33 6.6 0.66 10 1v3c2.31 0.33 4.62 0.66 7 1v3h8c0.33 0.99 0.66 1.98 1 3 2.31 0.33 4.62 0.66 7 1v3h7v4h8v3c3.3 0.33 6.6 0.66 10 1v3l8 1v3h15v4h11v3c7.26 0.33 14.5 0.66 22 1v3h18v-3c8.58-0.33 17.2-0.66 26-1v-3l14-1c0.33-0.99 0.66-1.98 1-3h14v-3c3.67-1.18 7.17-1.07 11-1v-3c2.31-0.33 4.62-0.66 7-1 0.33-0.99 0.66-1.98 1-3h7v-4h7v-3c2.31-0.33 4.62-0.66 7-1v-3h4v-4h4v-3c2.31-0.33 4.62-0.66 7-1v-3h3v-4h4v-4h4v-3c0.99-0.33 1.98-0.66 3-1 0.33-0.99 0.66-1.98 1-3h3c0.33-1.32 0.66-2.64 1-4h3v-3c0.99-0.33 1.98-0.66 3-1 0.33-0.99 0.66-1.98 1-3h3v-4h4v-4h3c0.33-2.31 0.66-4.62 1-7h4v-4h3v-4h3c0.33-2.31 0.66-4.62 1-7h3c0.33-3.63 0.66-7.26 1-11h3c0.33-2.31 0.66-4.62 1-7h3v-8h3l1-22h3c-0.0116-0.739-0.0232-1.48-0.0352-2.24-0.0621-6.99 0.27-13.8 1.04-20.8h3v-47h-3l-1-16h-3c-0.33-5.94-0.66-11.9-1-18h-3v-8h-3c-0.33-2.31-0.66-4.62-1-7h-3v-7h-4v-8h-3c-0.33-2.31-0.66-4.62-1-7h-3c-0.33-2.31-0.66-4.62-1-7h-3v-4h-4v-7c-1.32-0.33-2.64-0.66-4-1v-3h-3v-4h-4v-4h-3c-0.33-2.31-0.66-4.62-1-7h-4v-3c-2.31-0.33-4.62-0.66-7-1v-4h-3v-3h-4v-4h-4v-3c-2.31-0.33-4.62-0.66-7-1v-3h-4v-4h-6c-0.33-0.99-0.66-1.98-1-3-2.31-0.33-4.62-0.66-7-1v-3h-4v-3c-3.3-0.33-6.6-0.66-10-1-0.33-0.99-0.66-1.98-1-3-2.31-0.33-4.62-0.66-7-1v-3l-8-1v-3h-11v-3l-14-1v-3c-4.95-0.33-9.9-0.66-15-1v-3c-0.939 3.8e-4 -1.88 7.59e-4 -2.84 0.00115-55.6 0.0224-111 0.0395-167 0.0499-6.67 0.00125-13.3 0.00254-20 0.00387-0.996 1.96e-4 -0.996 1.96e-4 -2.01 3.96e-4 -21.5 0.00426-43.1 0.0118-64.6 0.021-22.7 0.0097-45.5 0.0157-68.2 0.0178-13.6 0.00137-27.3 0.00571-40.9 0.0138-9.34 0.00528-18.7 0.00689-28 0.00558-5.39-6.42e-4 -10.8 3.54e-4 -16.2 0.0057-4.94 0.00486-9.87 0.00511-14.8 0.00169-1.79-4.23e-4 -3.57 8.49e-4 -5.36 0.00398-2.43 0.00401-4.86 0.00185-7.28-0.00184-0.693 0.00263-1.39 0.00525-2.1 0.00796-4.7-0.0161-9.19-0.479-13.8-1.13v-2c-3.3-0.33-6.6-0.66-10-1v3c-0.99 0.33-1.98 0.66-3 1-0.33 103-0.66 205-1 311h-3c-0.33 2.31-0.66 4.62-1 7-13.5 2.18-27.4 0.881-41 0v-3l-14-1v-3h-12v-3l-13-1-1-3c-2.31-0.33-4.62-0.66-7-1v-3h-8v-4h-7v-3c-2.31-0.33-4.62-0.66-7-1v-3l-8-1v-3h-4v-4h-4v-3c-1.98-0.33-3.96-0.66-6-1v-3h-4v-4h-4v-4h-4v-3l-4-1v-3h-3v-3l-4-1v-3l-4-1v-3h-3v-4h-4v-4h-3c-0.33-2.31-0.66-4.62-1-7h-3c-0.495-1.49-0.495-1.49-1-3-0.99-0.33-1.98-0.66-3-1v-7h-4v-4h-3c-0.33-2.31-0.66-4.62-1-7h-3v-7h-4v-8h-3c-0.33-3.63-0.66-7.26-1-11h-3c-0.33-2.31-0.66-4.62-1-7-0.99-0.33-1.98-0.66-3-1v-11h-3c-0.973-4.86-1.12-9.45-1.06-14.4 0.00451-0.736 0.00902-1.47 0.0137-2.23 0.0117-1.8 0.0296-3.6 0.0488-5.39h-3v-581h3v-7h34v3c0.885-0.00786 0.885-0.00786 1.79-0.0159 2.67-0.0208 5.35-0.0338 8.02-0.0466l2.81-0.0254c1.34-0.00483 1.34-0.00483 2.71-0.00977 1.23-0.00786 1.23-0.00786 2.49-0.0159 2.18 0.114 2.18 0.114 5.18 1.11v3h13l1 3c2.31 0.33 4.62 0.66 7 1v3h11v4h11v4h4v3c2.31 0.33 4.62 0.66 7 1v3c2.31 0.33 4.62 0.66 7 1v3h4l1 3c2.02 0.733 2.02 0.733 4 1v3h6l1 3c0.99 0.33 1.98 0.66 3 1l1 3c0.99 0.33 1.98 0.66 3 1v3h4v4h4v3l4 1v3h3v4h4v4h3v3c1.32 0.33 2.64 0.66 4 1v3h3v4h4v7h4v4h3c0.33 2.31 0.66 4.62 1 7h3c0.103 0.639 0.206 1.28 0.312 1.94 0.34 1.02 0.34 1.02 0.688 2.06 0.99 0.33 1.98 0.66 3 1v10h4v7h3c0.33 2.64 0.66 5.28 1 8h3c0.33 3.63 0.66 7.26 1 11h3v15h3c0.891 8.69 1.12 17.3 1 26h3c0.33 47.8 0.66 95.7 1 145 1.98-0.33 3.96-0.66 6-1v-3c153-0.33 306-0.66 463-1 0.33-0.99 0.66-1.98 1-3h14v-3c3.31-1 6.3-1.1 9.75-1.06 0.985 0.00902 1.97 0.018 2.98 0.0273 1.12 0.0174 1.12 0.0174 2.27 0.0352v-3l11-1v-3h8v-3c2.31-0.33 4.62-0.66 7-1v-3c2.31-0.33 4.62-0.66 7-1v-3h8v-4h7c0.33-1.32 0.66-2.64 1-4h3v-3c1.98-0.33 3.96-0.66 6-1v-3h4v-3c0.99-0.33 1.98-0.66 3-1 0.33-0.99 0.66-1.98 1-3 2.31-0.33 4.62-0.66 7-1v-3h4v-4h4v-3h3v-4h4v-4h3c0.33-2.31 0.66-4.62 1-7 0.99-0.33 1.98-0.66 3-1 0.33-0.99 0.66-1.98 1-3h3v-4h3c0.33-2.31 0.66-4.62 1-7 0.99-0.33 1.98-0.66 3-1 0.33-1.98 0.66-3.96 1-6h3v-4c0.99-0.33 1.98-0.66 3-1 0.33-2.31 0.66-4.62 1-7h3c0.33-2.31 0.66-4.62 1-7h3v-7c1.32-0.33 2.64-0.66 4-1v-10c0.99-0.33 1.98-0.66 3-1l1-18h3l-0.0352-2.89c-0.0542-7.77 0.135-15.4 1.04-23.1h3v-41h-3c-0.33-6.27-0.66-12.5-1-19h-3l-1-17c-0.99-0.33-1.98-0.66-3-1v-11h-4v-7h-3c-0.33-2.64-0.66-5.28-1-8h-3v-7h-4v-4h-3c-0.33-2.31-0.66-4.62-1-7h-3v-4h-4v-7c-1.32-0.33-2.64-0.66-4-1v-3h-3v-4h-4v-4h-4v-4h-3v-3h-4v-4h-4v-3c-1.32-0.33-2.64-0.66-4-1v-3c-2.31-0.33-4.62-0.66-7-1v-3h-4v-4h-6v-3c-1.32-0.33-2.64-0.66-4-1v-3h-7v-4h-7v-3l-8-1v-3h-8v-3l-11-1v-3l-14-1v-3h-15c-0.33-0.99-0.66-1.98-1-3-12.2-0.33-24.4-0.66-37-1v-3h-2v3l-22 1c-0.33 0.66-0.66 1.32-1 2-3.15 1.05-5.39 1.1-8.69 1.06-0.994-0.00902-1.99-0.018-3.01-0.0273l-2.3-0.0352v3l-8 1v3c-3.3 0.33-6.6 0.66-10 1-0.33 0.99-0.66 1.98-1 3h-7v3l-11 1v3c-2.31 0.33-4.62 0.66-7 1-0.33 0.99-0.66 1.98-1 3-0.71 0.049-1.42 0.098-2.15 0.148-0.919 0.0748-1.84 0.15-2.79 0.227-0.917 0.0696-1.83 0.139-2.78 0.211-0.754 0.137-1.51 0.273-2.29 0.414-0.33 0.66-0.66 1.32-1 2-2.32 0.407-4.66 0.744-7 1v3c-3.3 0.33-6.6 0.66-10 1v3h-7v4h-8v3l-11 1v3c-2.31 0.33-4.62 0.66-7 1v3h-8v3c-2.31 0.33-4.62 0.66-7 1v3c-2.31 0.33-4.62 0.66-7 1-0.33 0.99-0.66 1.98-1 3h-10c-0.33 1.32-0.66 2.64-1 4h-7v3c-2.31 0.33-4.62 0.66-7 1-0.33 0.99-0.66 1.98-1 3h-10c-0.33 1.32-0.66 2.64-1 4h-7v3c-2.64 0.33-5.28 0.66-8 1v3c-3.3 0.33-6.6 0.66-10 1v3h-8v3c-2.31 0.33-4.62 0.66-7 1v3c-2.31 0.33-4.62 0.66-7 1-0.33 0.99-0.66 1.98-1 3-3.3 0.33-6.6 0.66-10 1-0.33 0.99-0.66 1.98-1 3h-7v3c-2.31 0.33-4.62 0.66-7 1v3h-7v4h-11v3c-2.31 0.33-4.62 0.66-7 1v3c-2.64 0.33-5.28 0.66-8 1v3h-7v3c-3.67 1.18-7.17 1.07-11 1v3h-9c-0.0253-7.78-0.0429-15.6-0.0549-23.3-0.00504-2.65-0.0119-5.29-0.0205-7.94-0.0121-3.8-0.0178-7.6-0.0222-11.4-0.00516-1.19-0.0103-2.38-0.0156-3.6-1.13e-4 -1.65-1.13e-4 -1.65-2.29e-4 -3.34-0.00222-0.97-0.00444-1.94-0.00673-2.94 0.12-2.45 0.12-2.45 1.12-5.45h2v-157h-2c-1.31-19.4-1.13-38.8-1.1-58.3 0.00633-4.82 0.00684-9.64 0.00803-14.5 0.00309-9.09 0.0113-18.2 0.0213-27.3 0.0112-10.4 0.0167-20.7 0.0217-31.1 0.0104-21.3 0.028-42.6 0.0503-63.9 3.43-1.14 5.61-0.909 9.19-0.562z" fill="#000102"/>
<path transform="translate(136,104)" d="m0 0h44v3c5.28 0.33 10.6 0.66 16 1v3c1.09-0.0206 2.19-0.0413 3.31-0.0625 3.69 0.0625 3.69 0.0625 6.69 1.06v3h7c0.33 0.99 0.66 1.98 1 3 2.02 0.733 2.02 0.733 4 1v3c2.31 0.33 4.62 0.66 7 1v3h4v4h7v4h3c0.33 1.98 0.66 3.96 1 6 1.32 0.33 2.64 0.66 4 1v3h3v4c1.32 0.33 2.64 0.66 4 1v6h3c0.103 0.639 0.206 1.28 0.312 1.94 0.227 0.681 0.454 1.36 0.688 2.06 0.99 0.33 1.98 0.66 3 1v7h4v14h3c0.33 4.95 0.66 9.9 1 15h3v34h-3c-0.33 4.95-0.66 9.9-1 15h-3v11h-3c-0.33 2.31-0.66 4.62-1 7h-3c-0.33 2.31-0.66 4.62-1 7h-3v4h-4v4h-3c-0.33 2.31-0.66 4.62-1 7h-4v4h-3v3h-4v4h-7v4h-4v4h-4v3c-3.3 0.33-6.6 0.66-10 1v3h-8v3c-3.31 1-6.3 1.1-9.75 1.06-0.985-0.00902-1.97-0.018-2.98-0.0273-1.12-0.0174-1.12-0.0174-2.27-0.0352v3c-15.8 2.12-32.2 1.38-48 0v-3h-11v-4h-11v-4h-7c-0.33-0.99-0.66-1.98-1-3-0.99-0.33-1.98-0.66-3-1v-3h-7v-4h-4c-0.33-0.99-0.66-1.98-1-3-0.99-0.33-1.98-0.66-3-1v-3c-1.32-0.33-2.64-0.66-4-1v-3h-3v-4h-4v-7h-4v-7c-1.32-0.33-2.64-0.66-4-1v-3h-3l-1-7c-0.99-0.33-1.98-0.66-3-1v-7h-3c-0.832-5.04-1.11-9.81-1.06-14.9 0.00451-0.684 0.00902-1.37 0.0137-2.07 0.0116-1.66 0.0296-3.33 0.0488-4.99h-3v-30h3l-0.0352-2.27c-0.0135-1.48-0.0135-1.48-0.0273-2.98-0.0116-0.975-0.0232-1.95-0.0352-2.95 0.0857-2.45 0.391-4.46 1.1-6.8h3v-11h3c0.33-2.31 0.66-4.62 1-7h3c0.33-2.64 0.66-5.28 1-8h3v-7h3c0.33-2.31 0.66-4.62 1-7h4v-4h3v-4h4v-3c0.99-0.33 1.98-0.66 3-1 0.495-1.48 0.495-1.48 1-3h3c0.33-1.32 0.66-2.64 1-4h3v-3c3.46-0.495 3.46-0.495 7-1 0.33-0.99 0.66-1.98 1-3h7v-4h8v-3c4.62-0.33 9.24-0.66 14-1v-3z" fill="#000102"/>
</svg>
